<?xml version="1.0" encoding="utf-8"?>
<!-- Generator: Adobe Illustrator 14.0.0, SVG Export Plug-In  -->
<!DOCTYPE svg PUBLIC "-//W3C//DTD SVG 1.1//EN" "http://www.w3.org/Graphics/SVG/1.1/DTD/svg11.dtd" [
	<!ENTITY ns_flows "http://ns.adobe.com/Flows/1.0/">
]>
<svg version="1.1"
	 xmlns="http://www.w3.org/2000/svg" xmlns:xlink="http://www.w3.org/1999/xlink" xmlns:a="http://ns.adobe.com/AdobeSVGViewerExtensions/3.0/"
	 x="0px" y="0px" width="174px" height="249px" viewBox="401 626 174 249" style="enable-background:new 401 626 174 249;"
	 xml:space="preserve">
<defs>
</defs>
<path style="fill:#8CC2AC;" d="M488.3,657c0,0,4.8,15.7,8.8,8.8c7.9-13.3,27.5-35.9,46.2-35.9c27,0,29.2,40.4,28,52.7
	c-11.3,114.8-83,186.9-83,186.9s-71.7-72-83-186.9c-1.2-12.4,1-52.7,28-52.7c18.7,0,38.3,22.5,46.2,35.9
	C483.5,672.7,488.3,657,488.3,657z"/>
<path style="fill:#231F20;" d="M488.3,874.2l-2.3-2.3c-0.7-0.7-18.4-18.7-37.8-51c-11.3-19-20.8-39-28.3-59.4
	c-9.3-25.6-15.3-52-17.9-78.4c-0.9-8.7-0.4-34.2,12-47.8c5.1-5.6,11.6-8.5,19.2-8.5c19.4,0,39.5,21.8,48.6,36.8
	c1.1-1.5,2.5-4.6,3.4-7.6l3.1-10l3.1,10c0.9,2.9,2.3,6,3.4,7.6c9.1-15,29.1-36.8,48.6-36.8c7.6,0,14.1,2.9,19.2,8.5
	c12.3,13.6,12.8,39.1,12,47.8c-2.6,26.5-8.6,52.8-17.9,78.4c-7.4,20.5-16.9,40.4-28.3,59.4c-19.3,32.3-37,50.3-37.8,51L488.3,874.2
	L488.3,874.2z M433.3,633.2c-5.8,0-10.6,2.1-14.4,6.4c-9.9,10.9-11.2,33.6-10.3,42.8c5.8,58.7,27.8,105.9,45.3,135.2
	c14.9,25,29.1,41.4,34.5,47.3c5.4-5.9,19.7-22.4,34.6-47.5c17.4-29.2,39.4-76.3,45.2-135c0.9-9.3-0.4-31.9-10.3-42.8
	c-3.9-4.3-8.6-6.4-14.4-6.4c-16.9,0-35.6,21-43.4,34.3c-1.6,2.7-3.6,3.3-5,3.3c-3.1,0-5.2-2.7-6.6-5.4c-1.5,2.7-3.6,5.4-6.6,5.4
	c0,0,0,0,0,0c-1.4,0-3.4-0.6-5-3.3C468.9,654.2,450.2,633.2,433.3,633.2L433.3,633.2z"/>
<rect x="457.4" y="800.7" style="fill:#8B9376;" width="61.9" height="19"/>
<rect x="505.4" y="801.8" style="fill:#E8A187;" width="12.5" height="16.7"/>
<rect x="493.1" y="801.9" style="fill:#D65F78;" width="14.9" height="16.7"/>
<rect x="483.7" y="801.9" style="fill:#C78491;" width="13.3" height="16.7"/>
<rect x="468.1" y="801.9" style="fill:#7B5979;" width="17.8" height="16.7"/>
<rect x="458.6" y="801.9" style="fill:#BC87B9;" width="11.1" height="16.7"/>
<text transform="matrix(1 0 0 1 459.0469 817.1128)" style="fill:#231F20; font-family:'LithosPro-Black'; font-size:19.3617;">Shelf</text>
<path style="fill:#7B5979;" d="M436.3,681.1c-0.2,0-0.5-0.1-0.7-0.2l-10-4.8c-0.3-0.1-0.5-0.3-0.6-0.5l-6.2-9.1
	c-0.2-0.3-0.3-0.6-0.3-1l0.4-12.5c0-0.4,0.2-0.8,0.5-1.1l10-9.3c0.3-0.3,0.7-0.5,1.2-0.4l10.4,0.5c0.4,0,0.8,0.2,1.1,0.5l7,7.8
	c0.3,0.3,0.4,0.7,0.4,1.2l-0.4,8.3c0,0.4-0.2,0.8-0.5,1.1l-6.2,5.6c-0.3,0.3-0.8,0.4-1.2,0.4l-7.4-0.7c-0.4,0-0.8-0.3-1.1-0.6
	l-3.8-4.6c-0.2-0.3-0.4-0.6-0.4-1l0-4.6c0-0.4,0.2-0.8,0.5-1.1l4.3-4.3c0.6-0.6,1.6-0.6,2.3,0c0.6,0.6,0.6,1.6,0,2.3l-3.8,3.8l0,3.4
	l3,3.6l6,0.6l5.2-4.7l0.4-7l-6.1-6.8l-9.1-0.5l-9,8.4l-0.4,11.3l5.7,8.3l9.2,4.4l10.6-0.8c0.9-0.1,1.7,0.6,1.7,1.5s-0.6,1.7-1.5,1.7
	l-11,0.9C436.4,681.1,436.4,681.1,436.3,681.1L436.3,681.1z"/>
<path style="fill:#231F20;" d="M436.3,681.4c-0.3,0-0.6-0.1-0.8-0.2l-10-4.8c-0.3-0.1-0.6-0.4-0.8-0.7l-6.2-9.1
	c-0.2-0.3-0.4-0.7-0.3-1.2l0.4-12.5c0-0.5,0.2-1,0.6-1.3l10-9.3c0.4-0.4,0.9-0.5,1.4-0.5l10.4,0.5c0.5,0,1,0.3,1.3,0.6l7,7.8
	c0.3,0.4,0.5,0.9,0.5,1.4l-0.4,8.3c0,0.5-0.3,1-0.6,1.3l-6.2,5.6c-0.4,0.4-0.9,0.5-1.5,0.5l-7.4-0.7c-0.5,0-1-0.3-1.3-0.7l-3.8-4.6
	c-0.3-0.3-0.4-0.8-0.4-1.2l0-4.6c0-0.5,0.2-1,0.6-1.4l4.3-4.3c0.4-0.4,0.8-0.6,1.4-0.6c0.5,0,1,0.2,1.4,0.6c0.4,0.4,0.6,0.8,0.6,1.4
	c0,0.5-0.2,1-0.6,1.4L432,657l0,3.2l2.8,3.4l5.7,0.6l5-4.5l0.4-6.7l-5.9-6.6l-8.8-0.5l-8.8,8.2l-0.4,11.1l5.6,8.1l9.1,4.3l10.5-0.8
	c1.1-0.1,2,0.7,2.1,1.8c0.1,1.1-0.7,2-1.8,2.1l-11,0.9C436.4,681.4,436.4,681.4,436.3,681.4L436.3,681.4z M430.5,642.6
	c-0.3,0-0.6,0.1-0.9,0.3l-10,9.3c-0.3,0.2-0.4,0.6-0.4,0.9l-0.4,12.5c0,0.3,0.1,0.5,0.2,0.8l6.2,9.1c0.1,0.2,0.3,0.3,0.5,0.4l10,4.8
	c0.2,0.1,0.4,0.1,0.7,0.1l11-0.9c0.7-0.1,1.2-0.7,1.2-1.4c-0.1-0.7-0.7-1.2-1.4-1.2l-10.6,0.8l-9.4-4.5l-5.8-8.4l0.4-11.5l9.2-8.6
	l9.4,0.5l6.3,7l-0.4,7.3l-5.4,4.9l-6.3-0.6l-3.1-3.8l0-3.6l3.9-3.9c0.2-0.2,0.4-0.6,0.4-0.9c0-0.3-0.1-0.7-0.4-0.9
	c-0.2-0.2-0.6-0.4-0.9-0.4c-0.3,0-0.7,0.1-0.9,0.4l-4.3,4.3c-0.2,0.2-0.4,0.6-0.4,0.9l0,4.6c0,0.3,0.1,0.6,0.3,0.8l3.8,4.6
	c0.2,0.3,0.5,0.4,0.9,0.5l7.4,0.7c0.4,0,0.7-0.1,1-0.3l6.2-5.6c0.3-0.2,0.4-0.5,0.4-0.9l0.4-8.3c0-0.3-0.1-0.7-0.3-0.9l-7-7.8
	c-0.2-0.3-0.5-0.4-0.9-0.4L430.5,642.6L430.5,642.6z"/>
<path style="fill:#7B5979;" d="M538.3,681.9c0,0-0.1,0-0.1,0l-11-0.9c-1-0.1-1.7-0.9-1.6-1.9c0.1-1,0.9-1.7,1.9-1.6l10.5,0.8
	l9.2-4.4l5.6-8.2l-0.4-11.2l-8.9-8.3l-9,0.5l-6,6.7l0.4,6.9l5.1,4.6l5.9-0.6l2.9-3.5l0-3.3l-3.7-3.8c-0.7-0.7-0.7-1.8,0-2.5
	c0.7-0.7,1.8-0.7,2.5,0l4.3,4.3c0.3,0.3,0.5,0.8,0.5,1.3l0,4.6c0,0.4-0.1,0.8-0.4,1.1l-3.8,4.6c-0.3,0.4-0.7,0.6-1.2,0.6l-7.4,0.7
	c-0.5,0-1-0.1-1.4-0.4l-6.2-5.6c-0.3-0.3-0.6-0.8-0.6-1.2l-0.4-8.3c0-0.5,0.1-0.9,0.5-1.3l7-7.8c0.3-0.3,0.8-0.6,1.2-0.6l10.4-0.5
	c0.5,0,0.9,0.1,1.3,0.5l10,9.3c0.3,0.3,0.5,0.8,0.6,1.2l0.4,12.5c0,0.4-0.1,0.7-0.3,1.1l-6.2,9.1c-0.2,0.3-0.4,0.5-0.7,0.6l-10,4.8
	C538.8,681.8,538.5,681.9,538.3,681.9L538.3,681.9z"/>
<path style="fill:#231F20;" d="M538.3,682.2c-0.1,0-0.1,0-0.2,0l-11-0.9c-0.6,0-1.1-0.3-1.4-0.7c-0.4-0.4-0.5-1-0.5-1.5
	c0.1-1.1,1.1-2,2.3-1.9l10.4,0.8l9-4.3l5.5-8l-0.4-10.9l-8.7-8.1l-8.7,0.5l-5.8,6.5l0.3,6.6l4.9,4.4l5.6-0.5l2.8-3.4l0-3l-3.7-3.7
	c-0.4-0.4-0.6-0.9-0.6-1.5c0-0.6,0.2-1.1,0.6-1.5c0.4-0.4,0.9-0.6,1.5-0.6c0.6,0,1.1,0.2,1.5,0.6l4.3,4.3c0.4,0.4,0.6,0.9,0.6,1.5
	l0,4.6c0,0.5-0.2,1-0.5,1.3l-3.8,4.6c-0.4,0.4-0.9,0.7-1.4,0.8l-7.4,0.7c-0.6,0.1-1.2-0.1-1.6-0.5l-6.2-5.6
	c-0.4-0.4-0.7-0.9-0.7-1.4l-0.4-8.3c0-0.6,0.2-1.1,0.5-1.5l7-7.8c0.4-0.4,0.9-0.7,1.4-0.7l10.4-0.5c0.6,0,1.1,0.2,1.5,0.6l10,9.3
	c0.4,0.4,0.6,0.9,0.7,1.5l0.4,12.5c0,0.4-0.1,0.9-0.4,1.3l-6.2,9.1c-0.2,0.3-0.5,0.5-0.8,0.7l-10,4.8
	C538.9,682.1,538.6,682.2,538.3,682.2L538.3,682.2z M527.3,677.8c-0.7,0-1.4,0.6-1.4,1.3c0,0.4,0.1,0.8,0.3,1.1s0.6,0.5,1,0.5
	l11,0.9c0.3,0,0.5,0,0.7-0.1l10-4.8c0.2-0.1,0.4-0.3,0.6-0.5l6.2-9.1c0.2-0.3,0.3-0.6,0.3-0.9l-0.4-12.5c0-0.4-0.2-0.7-0.5-1
	l-10-9.3c-0.3-0.3-0.7-0.4-1.1-0.4l-10.4,0.5c-0.4,0-0.7,0.2-1,0.5l-7,7.8c-0.3,0.3-0.4,0.7-0.4,1l0.4,8.3c0,0.4,0.2,0.7,0.5,1
	l6.2,5.6c0.3,0.3,0.7,0.4,1.1,0.4l7.4-0.7c0.4,0,0.7-0.2,1-0.5l3.8-4.6c0.2-0.3,0.3-0.6,0.3-0.9l0-4.6c0-0.4-0.1-0.8-0.4-1l-4.3-4.3
	c-0.3-0.3-0.6-0.4-1-0.4c-0.4,0-0.7,0.2-1,0.4c-0.3,0.3-0.4,0.6-0.4,1c0,0.4,0.1,0.8,0.4,1l3.8,3.9l0,3.5l-3.1,3.7l-6.1,0.6
	l-5.3-4.8l-0.4-7.1l6.2-6.9l9.2-0.5l9.1,8.5l0.4,11.4l-5.7,8.4l-9.3,4.4l-10.6-0.8C527.4,677.8,527.3,677.8,527.3,677.8L527.3,677.8
	z"/>
<path style="fill:#BC87B9;" d="M538.9,754.2C538.9,754.2,538.9,754.2,538.9,754.2l-7.2-0.6c-0.6,0-1.1-0.6-1-1.2
	c0-0.6,0.6-1.1,1.2-1l6.8,0.5l5.9-2.8l3.6-5.3l-0.2-7.2l-5.7-5.4l-5.8,0.3l-3.9,4.3l0.2,4.5l3.3,3l3.8-0.4l1.9-2.3l0-2.1l-2.4-2.4
	c-0.4-0.4-0.4-1.2,0-1.6s1.2-0.4,1.6,0l2.8,2.8c0.2,0.2,0.3,0.5,0.3,0.8l0,3c0,0.3-0.1,0.5-0.3,0.7l-2.4,3c-0.2,0.2-0.5,0.4-0.8,0.4
	l-4.8,0.5c-0.3,0-0.6-0.1-0.9-0.3l-4-3.6c-0.2-0.2-0.4-0.5-0.4-0.8l-0.3-5.4c0-0.3,0.1-0.6,0.3-0.8l4.5-5c0.2-0.2,0.5-0.4,0.8-0.4
	l6.7-0.4c0.3,0,0.6,0.1,0.8,0.3l6.4,6c0.2,0.2,0.3,0.5,0.4,0.8l0.3,8.1c0,0.2-0.1,0.5-0.2,0.7l-4,5.9c-0.1,0.2-0.3,0.3-0.4,0.4
	l-6.5,3.1C539.3,754.1,539.1,754.2,538.9,754.2L538.9,754.2z"/>
<path style="fill:#231F20;" d="M538.9,754.5c0,0-0.1,0-0.1,0l-7.1-0.6c-0.4,0-0.7-0.2-1-0.5c-0.3-0.3-0.4-0.7-0.3-1.1
	c0.1-0.8,0.8-1.4,1.6-1.3l6.7,0.5l5.8-2.7l3.5-5.1l-0.2-7l-5.5-5.2l-5.5,0.3l-3.7,4.1l0.2,4.2l3.1,2.8l3.5-0.3l1.7-2.1l0-1.9
	l-2.3-2.3c-0.6-0.6-0.6-1.5,0-2c0.3-0.3,0.6-0.4,1-0.4c0.4,0,0.8,0.2,1,0.4l2.8,2.8c0.3,0.3,0.4,0.6,0.4,1l0,3
	c0,0.3-0.1,0.7-0.3,0.9l-2.4,3c-0.2,0.3-0.6,0.5-1,0.5l-4.8,0.5c-0.4,0-0.8-0.1-1.1-0.4l-4-3.6c-0.3-0.3-0.5-0.6-0.5-1l-0.3-5.4
	c0-0.4,0.1-0.8,0.4-1l4.5-5c0.3-0.3,0.6-0.5,1-0.5l6.7-0.4c0,0,0.1,0,0.1,0c0.4,0,0.7,0.1,1,0.4l6.4,6c0.3,0.3,0.4,0.6,0.5,1
	l0.3,8.1c0,0.3-0.1,0.6-0.3,0.9l-4,5.9c-0.1,0.2-0.3,0.4-0.6,0.5l-6.5,3.1C539.4,754.4,539.1,754.5,538.9,754.5L538.9,754.5z
	 M531.9,751.7c-0.4,0-0.8,0.3-0.8,0.7c0,0.2,0.1,0.4,0.2,0.6c0.1,0.2,0.3,0.3,0.5,0.3l7.1,0.6c0.1,0,0.3,0,0.4-0.1l6.5-3.1
	c0.1-0.1,0.2-0.2,0.3-0.3l4-5.9c0.1-0.1,0.1-0.3,0.1-0.5l-0.3-8.1c0-0.2-0.1-0.4-0.3-0.6l-6.4-6c-0.1-0.1-0.3-0.2-0.5-0.2l0,0
	l-6.7,0.4c-0.2,0-0.4,0.1-0.6,0.3l-4.5,5c-0.1,0.2-0.2,0.4-0.2,0.6l0.3,5.4c0,0.2,0.1,0.4,0.3,0.6l4,3.6c0.2,0.2,0.4,0.2,0.6,0.2
	l4.8-0.5c0.2,0,0.4-0.1,0.5-0.3l2.4-3c0.1-0.1,0.2-0.3,0.2-0.5l0-3c0-0.2-0.1-0.4-0.2-0.6l-2.7-2.8c-0.3-0.3-0.8-0.3-1.1,0
	c-0.3,0.3-0.3,0.8,0,1.1l2.5,2.5l0,2.4l-2,2.5l-4.1,0.4l-3.5-3.1l-0.2-4.7l4.1-4.5l6.1-0.3l5.9,5.5l0.3,7.5l-3.7,5.5l-6.1,2.9
	L531.9,751.7C531.9,751.7,531.9,751.7,531.9,751.7L531.9,751.7z"/>
<path style="fill:#BC87B9;" d="M442.1,754.2c-0.2,0-0.3,0-0.5-0.1l-6.5-3.1c-0.2-0.1-0.3-0.2-0.4-0.4l-4-5.9
	c-0.1-0.2-0.2-0.4-0.2-0.7l0.3-8.1c0-0.3,0.1-0.6,0.4-0.8l6.4-6c0.2-0.2,0.5-0.3,0.8-0.3l6.7,0.4c0.3,0,0.6,0.1,0.8,0.4l4.5,5
	c0.2,0.2,0.3,0.5,0.3,0.8l-0.3,5.4c0,0.3-0.1,0.6-0.4,0.8l-4,3.6c-0.2,0.2-0.5,0.3-0.9,0.3l-4.8-0.5c-0.3,0-0.6-0.2-0.8-0.4l-2.4-3
	c-0.2-0.2-0.3-0.5-0.3-0.7l0-3c0-0.3,0.1-0.6,0.3-0.8l2.8-2.8c0.4-0.4,1.2-0.4,1.6,0s0.4,1.2,0,1.6l-2.4,2.4l0,2.1l1.9,2.3l3.8,0.4
	l3.3-3l0.2-4.5l-3.9-4.3l-5.8-0.3l-5.7,5.4l-0.2,7.2l3.6,5.3l5.9,2.8l6.8-0.5c0.6,0,1.2,0.4,1.2,1c0,0.6-0.4,1.2-1,1.2L442.1,754.2
	C442.2,754.2,442.2,754.2,442.1,754.2L442.1,754.2z"/>
<path style="fill:#231F20;" d="M442.1,754.5c-0.2,0-0.4,0-0.6-0.1l-6.5-3.1c-0.2-0.1-0.4-0.3-0.6-0.5l-4-5.9
	c-0.2-0.3-0.3-0.6-0.3-0.9l0.3-8.1c0-0.4,0.2-0.7,0.5-1l6.4-6c0.3-0.3,0.7-0.4,1.1-0.4l6.7,0.4c0.4,0,0.7,0.2,1,0.5l4.5,5
	c0.3,0.3,0.4,0.7,0.4,1l-0.3,5.4c0,0.4-0.2,0.7-0.5,1l-4,3.6c-0.3,0.3-0.7,0.4-1.1,0.4l-4.8-0.5c-0.4,0-0.7-0.2-1-0.5l-2.4-3
	c-0.2-0.3-0.3-0.6-0.3-0.9l0-3c0-0.4,0.1-0.8,0.4-1l2.7-2.8c0.3-0.3,0.6-0.4,1-0.4c0.4,0,0.7,0.1,1,0.4c0.6,0.6,0.6,1.5,0,2
	l-2.3,2.3l0,1.9l1.7,2.1l3.5,0.3l3.1-2.8l0.2-4.2l-3.7-4.1l-5.5-0.3l-5.5,5.2l-0.2,7l3.5,5.1l5.8,2.7l6.7-0.5c0,0,0.1,0,0.1,0
	c0.8,0,1.4,0.6,1.4,1.3c0,0.4-0.1,0.8-0.3,1.1c-0.3,0.3-0.6,0.5-1,0.5l-7.1,0.6C442.2,754.5,442.2,754.5,442.1,754.5L442.1,754.5z
	 M438.4,729.2c-0.2,0-0.4,0.1-0.5,0.2l-6.4,6c-0.2,0.1-0.2,0.3-0.3,0.6l-0.3,8.1c0,0.2,0,0.3,0.1,0.5l4,5.9c0.1,0.1,0.2,0.2,0.3,0.3
	l6.5,3.1c0.1,0.1,0.3,0.1,0.4,0.1l7.1-0.6c0.2,0,0.4-0.1,0.5-0.3c0.1-0.2,0.2-0.4,0.2-0.6c0-0.4-0.4-0.8-0.9-0.7l-6.9,0.5l-6.1-2.9
	l-3.7-5.5l0.3-7.5l5.9-5.5l6.1,0.3l4.1,4.5l-0.2,4.7l-3.5,3.1l-4.1-0.4l-2-2.5l0-2.4l2.5-2.5c0.3-0.3,0.3-0.8,0-1.1
	c-0.3-0.3-0.8-0.3-1.1,0l-2.8,2.8c-0.2,0.2-0.2,0.4-0.2,0.6l0,3c0,0.2,0.1,0.4,0.2,0.5l2.4,3c0.1,0.2,0.3,0.3,0.5,0.3l4.8,0.5
	c0.2,0,0.4-0.1,0.6-0.2l4-3.6c0.2-0.1,0.3-0.3,0.3-0.6l0.3-5.4c0-0.2-0.1-0.4-0.2-0.6l-4.5-5c-0.1-0.2-0.3-0.3-0.6-0.3L438.4,729.2
	L438.4,729.2z"/>
<path style="fill:#231F20;stroke:#231F20;" d="M509.9,673.6c3.5-0.3-48.4,3.7-46,43.4c1.6,26.3,15,18.9,14,40.7
	c-1,20.6-26.4,14.8-26.4,14.8l4.6,11.7c0,0,48.2,8.6,53.7-22.9c3.4-19.5-20.7-30.2-20.7-49.6c0-8,5.5-18.5,19.1-28.1L509.9,673.6z"
	/>
<path style="fill:#231F20;stroke:#A4978E;" d="M486.2,723.9c0,0-5-3.8-6.6-8.6l-2.7,0.4c0,5.1-3.5,10.3-3.5,10.3L486.2,723.9z"/>
<rect x="470.4" y="703.1" transform="matrix(0.9864 -0.1642 0.1642 0.9864 -110.126 88.0303)" style="fill:#231F20;" width="13.8" height="13.8"/>
<path style="fill:#A4978E;" d="M470.6,719.5l-2.7-16.2l16.2-2.7l2.7,16.2L470.6,719.5L470.6,719.5z M470.8,705.4l1.8,11.1l11.1-1.8
	l-1.8-11.1L470.8,705.4L470.8,705.4z"/>
<path style="fill:#231F20;" d="M495,751.6c-0.2,0.3-0.6,0.4-0.9,0.2l-17.4-11.8c-0.3-0.2-0.4-0.6-0.2-0.9l5-7.3
	c0.2-0.3,0.6-0.4,0.9-0.2l17.4,11.8c0.3,0.2,0.4,0.6,0.2,0.9L495,751.6z"/>
<path style="fill:#A4978E;" d="M494.5,752c-0.2,0-0.3,0-0.5-0.1L476.6,740c-0.4-0.2-0.5-0.7-0.2-1.1l5-7.3c0.2-0.4,0.8-0.5,1.1-0.2
	l17.4,11.8c0.2,0.1,0.3,0.3,0.3,0.5s0,0.4-0.1,0.6l-5,7.3C495,751.9,494.7,752,494.5,752L494.5,752z M482,731.6
	c-0.2,0-0.3,0.1-0.4,0.2l-5,7.3c-0.1,0.1-0.1,0.2-0.1,0.4c0,0.1,0.1,0.2,0.2,0.3l17.4,11.8c0.2,0.1,0.5,0.1,0.7-0.1l5-7.3
	c0.1-0.1,0.1-0.2,0.1-0.4c0-0.1-0.1-0.2-0.2-0.3l-17.4-11.8C482.2,731.6,482.1,731.6,482,731.6L482,731.6z"/>
<polygon style="fill:#A4978E;" points="479.5,740.6 479.3,740.4 484.4,734.1 484.6,734.3 479.5,740.6 "/>
<polygon style="fill:#A4978E;" points="497.9,744.8 481,733.5 481.2,733.3 498.1,744.5 497.9,744.8 "/>
<polygon style="fill:#A4978E;" points="496.1,746 480.6,735.8 480.8,735.5 496.3,745.8 496.1,746 "/>
<polygon style="fill:#A4978E;" points="495.2,748.5 478.6,737.3 478.8,737.1 495.4,748.2 495.2,748.5 "/>
<polygon style="fill:#A4978E;" points="481.9,741.6 481.7,741.4 486.2,735.7 486.4,735.9 481.9,741.6 "/>
<polygon style="fill:#A4978E;" points="484.4,744.2 484.1,744 488.7,737.4 489,737.6 484.4,744.2 "/>
<polygon style="fill:#A4978E;" points="486.8,745.6 486.6,745.4 491,739 491.3,739.2 486.8,745.6 "/>
<polygon style="fill:#A4978E;" points="489.8,747 489.6,746.8 493.4,740.6 493.7,740.8 489.8,747 "/>
<polygon style="fill:#A4978E;" points="491.9,748.2 491.7,748.1 495.5,742.1 495.8,742.2 491.9,748.2 "/>
<polygon style="fill:#A4978E;" points="493.7,750.2 493.4,750 497.7,743.5 498,743.7 493.7,750.2 "/>
<path style="fill:#231F20;stroke:#A4978E;" d="M493.9,759.7c-0.2,0-0.6,0.1-0.7,0.4c0,0.2-0.3,1.3-0.6,2.5c-0.3,1.1-0.6,2.1-0.7,2.4
	c-0.1,1.5,3.2,2.3,3.9,1.2c0.2-0.3,0.6-1.5,1-2.6c0.4-1,0.8-1.9,0.8-2.2c0.1-0.3-0.1-0.6-0.3-0.7C496.5,759.9,495,759.6,493.9,759.7
	z"/>
<path style="fill:#A4978E;" d="M495.5,760.5c-0.3,1-0.6,1.9-0.8,2.9c0,0.1,0.1,0.1,0.2,0c0.3-1,0.6-1.9,0.8-2.9
	C495.6,760.4,495.5,760.4,495.5,760.5L495.5,760.5z"/>
<path style="fill:#A4978E;" d="M495.1,763.5c0.4,0.2,0.7,0.3,1.2,0.3c0.1,0,0.1-0.1,0-0.1c-0.4,0-0.7-0.1-1.1-0.3
	C495.2,763.4,495,763.5,495.1,763.5L495.1,763.5z"/>
<path style="fill:#A4978E;" d="M494.4,763.2c-0.4,0-0.7-0.2-1.1-0.4c0,0-0.2,0-0.1,0.1c0.3,0.3,0.7,0.4,1.1,0.4
	C494.3,763.3,494.4,763.2,494.4,763.2L494.4,763.2z"/>
<path style="fill:#231F20;" d="M488.3,874.2l-2.3-2.3c-0.7-0.7-18.4-18.7-37.8-51c-11.3-19-20.8-39-28.3-59.4
	c-9.3-25.6-15.3-52-17.9-78.4c-0.9-8.7-0.4-34.2,12-47.8c5.1-5.6,11.6-8.5,19.2-8.5c19.4,0,39.5,21.8,48.6,36.8
	c1.1-1.5,2.5-4.6,3.4-7.6l3.1-10l3.1,10c0.9,2.9,2.3,6,3.4,7.6c9.1-15,29.1-36.8,48.6-36.8c7.6,0,14.1,2.9,19.2,8.5
	c12.3,13.6,12.8,39.1,12,47.8c-2.6,26.5-8.6,52.8-17.9,78.4c-7.4,20.5-16.9,40.4-28.3,59.4c-19.3,32.3-37,50.3-37.8,51L488.3,874.2
	L488.3,874.2z M433.3,633.2c-5.8,0-10.6,2.1-14.4,6.4c-9.9,10.9-11.2,33.6-10.3,42.8c5.8,58.7,27.8,105.9,45.3,135.2
	c14.9,25,29.1,41.4,34.5,47.3c5.4-5.9,19.7-22.4,34.6-47.5c17.4-29.2,39.4-76.3,45.2-135c0.9-9.3-0.4-31.9-10.3-42.8
	c-3.9-4.3-8.6-6.4-14.4-6.4c-16.9,0-35.6,21-43.4,34.3c-1.6,2.7-3.6,3.3-5,3.3c-3.1,0-5.2-2.7-6.6-5.4c-1.5,2.7-3.6,5.4-6.6,5.4
	c0,0,0,0,0,0c-1.4,0-3.4-0.6-5-3.3C468.9,654.2,450.2,633.2,433.3,633.2L433.3,633.2z"/>
</svg>
